<svg version="1.0" xmlns="http://www.w3.org/2000/svg" width="709.333" height="960" viewBox="0 0 532 720"><path d="M41.3 1.5C23.9 5.3 9.2 18.5 2.8 36.1L.5 42.5.2 357C0 642.7.1 672.2 1.6 678.8c3.9 18 16.6 32.1 34.4 38.4l6.5 2.3 220.8.3c236.9.2 226 .5 237.7-4.6 12.2-5.2 23.4-17.7 28.2-31.2l2.3-6.5v-635l-2.3-6.4c-6.4-17.8-21.1-30.9-38.9-34.6-9.8-2.1-439.5-2.1-449 0zm442.8 51.4 3.9 3.9v91.9l-2.3 3.4c-1.2 1.9-3.8 4.2-5.7 5.1-3.3 1.7-15.6 1.8-214 1.8s-210.7-.1-214-1.8c-1.9-.9-4.5-3.2-5.7-5.1l-2.3-3.4V56.8l3.9-3.9 3.9-3.9h428.4l3.9 3.9zM136.3 209.3c1.6 1 3.7 3.2 4.7 5 1.9 3 2 5.3 2 42.8 0 39.5 0 39.6-2.3 43-4.6 7-4.6 7-48.7 6.7-36.9-.3-39.7-.4-42.3-2.2-6-4.1-6.1-4.6-6.5-45.4-.2-20.5-.1-38.8.2-40.7.9-4.5 4.9-9.2 8.9-10.4 1.8-.6 20.2-.9 42.2-.8 35.8.2 39.3.4 41.8 2zm117.3.1c6.5 3.9 6.4 3.2 6.4 47.6 0 45.3.2 44.3-7.5 48-3.9 1.9-6.3 2-41.8 2-40.8 0-41.8-.1-46.7-5.5l-2.5-2.7-.3-40.9c-.3-46.3-.4-45.5 7.1-49 3.9-1.8 6.5-1.9 43.2-1.7 36.2.3 39.2.4 42.1 2.2zm112.9-.4c7.7 3.7 7.5 2.7 7.5 48 0 38.6-.1 40.4-2 43.5-3.9 6.3-5.7 6.5-47.8 6.5-42 0-42.4 0-46.9-6.9-2.3-3.4-2.3-3.5-2.3-43.3 0-45.1-.1-44.5 7.3-47.9 3.9-1.7 7-1.9 42.1-1.9 35.8 0 38.2.1 42.1 2zm113.5-.4c2.3 1 4.8 2.9 6 4.9 1.9 3.1 2 4.9 2 43.4 0 43.8 0 43.8-5.7 47.7-2.6 1.8-5.4 1.9-42.3 2.2-44.1.3-44.1.3-48.7-6.7-2.3-3.4-2.3-3.5-2.3-43.3 0-32.9.3-40.4 1.4-42.7 1.6-3 4.9-5.5 8.1-6.4 1.1-.2 19-.5 39.7-.6 32.5-.1 38.3.1 41.8 1.5zM136.8 326c6.2 3.8 6.3 4.7 6 49l-.3 39.8-2.5 2.7c-5.2 5.5-4.8 5.5-46.7 5.5-43.4 0-43.7-.1-47.8-7-1.9-3.3-2-5.4-2.3-42.1-.4-42.9-.3-44 6-47.9 3.2-1.9 4.9-2 43.8-2s40.6.1 43.8 2zm119 1.4 3.7 3.4.3 41.4c.2 39.1.1 41.5-1.7 44.4-3.8 6.3-4.7 6.4-47.8 6.4-43.4 0-43.7 0-47.5-7.1-1.7-3.1-1.8-6.5-1.8-43.4.1-43.2 0-42.9 5.6-46.6 2.7-1.8 5.1-1.9 44.2-1.9H252l3.8 3.4zm114.3.5 3.9 3.9v40.8c0 39.3-.1 41-2 44.2-3.7 6.1-4.8 6.2-47.7 6.2-43.4 0-43.7 0-47.5-7.1-1.7-3.1-1.8-6.5-1.8-43.2 0-35 .2-40.2 1.6-42.6 3.6-6.1 3-6 48.3-6.1h41.3l3.9 3.9zm114 0 3.9 3.9v40.8c0 39.3-.1 41-2 44.2-3.8 6.2-4.7 6.3-49 6l-40-.3-3.7-3.8-3.8-3.7-.3-41.6-.3-41.6 4-3.9 3.9-3.9h83.4l3.9 3.9zM136.5 443c6.4 4 6.5 4.6 6.5 47.5 0 42.8-.1 43.8-6.4 47.6-2.9 1.8-5.3 1.9-44.4 1.7l-41.4-.3-3.3-3.6c-3.1-3.5-3.3-4.1-4-14-.3-5.7-.5-24.4-.3-41.4.3-27.9.5-31.3 2.1-33.6 3.9-5.8 4.6-5.9 48.1-5.9 38.2 0 40 .1 43.1 2zm117.2 0c6.3 3.8 6.3 3.8 6.3 47.7 0 37.7-.1 40-2 43-3.8 6.3-3.8 6.3-47.5 6.3s-43.7 0-47.5-6.3c-1.9-3-2-5.3-2-43.7 0-44.7-.2-43.1 6.4-47.1 2.9-1.8 5.5-1.9 43.1-1.9 37.9 0 40.2.1 43.2 2zm114 0c6.3 3.8 6.3 3.8 6.3 47.7 0 43.5 0 43-5.9 47-3.4 2.3-3.4 2.3-43.3 2.3-44.1 0-44 0-47.8-6.3-1.9-3-2-5.3-2-43.7 0-44.7-.2-43.1 6.4-47.1 2.9-1.8 5.5-1.9 43.1-1.9 37.9 0 40.2.1 43.2 2zm114.4.3c5.9 4 5.9 3.5 5.9 47.8 0 39.7 0 40.7-2.1 43.3-4.4 5.6-4.4 5.6-47.6 5.6-38.2 0-39.9-.1-43.1-2-6.1-3.7-6.2-4.7-6.2-48.7 0-43.9-.2-42.4 6.4-46.4 2.9-1.8 5.5-1.9 43.2-1.9 40.1 0 40.1 0 43.5 2.3zM136.8 555c6.1 3.7 6.2 4.8 6.2 47.7 0 43.4 0 43.7-7.1 47.5-3.1 1.7-6.5 1.8-42.9 1.8-37.4 0-39.7-.1-42.7-2-6.9-4.2-6.8-3.2-7.1-46.6-.4-35.8-.2-39.5 1.4-42.9 3.6-7.6 2.9-7.5 48.4-7.5 38.9 0 40.6.1 43.8 2zm116.9 0c6.3 3.8 6.3 3.8 6.3 47.7 0 37.7-.1 40-2 43-3.8 6.3-3.8 6.3-47.5 6.3s-43.7 0-47.5-6.3c-1.9-3-2-5.3-2-43.9v-40.6l2.7-3.2c1.4-1.8 3.6-3.6 4.7-4 1.2-.5 20.1-.9 42.1-.9 38-.1 40.2 0 43.2 1.9zm116.5 1.8 3.3 3.2.3 41c.3 45.4.3 45.1-6.1 49-3 1.9-5.3 2-43.1 2-38.2 0-40-.1-43.1-2-6.4-4-6.5-4.4-6.5-48.8v-40l2.7-3.2c1.4-1.8 3.6-3.6 4.7-4 1.2-.5 20.7-.8 43.3-.7l41.3.2 3.2 3.3zm110.3-2.4c1.9.8 4.4 3 5.5 4.8 1.9 3.2 2 4.9 2 42.8 0 44.2 0 44.4-7.1 48.2-3.2 1.7-6.1 1.8-43.1 1.6-38.3-.3-39.8-.4-42.5-2.4-6.2-4.6-6.3-5-6.3-47.9 0-37.3.1-39.1 2-42.3 3.7-6 4.5-6.1 47.3-6.2 31.5 0 39.4.3 42.2 1.4z"/><path d="M427.9 69.1c-2 2-2 2.2-.3 4 1.5 1.7 3.1 1.9 13.4 1.9 10.4 0 11.9-.2 13.5-2 1.7-1.9 1.7-2.1 0-4-1.6-1.8-3.1-2-13.2-2s-11.5.2-13.4 2.1z"/><path d="M422.8 74.1c-1.6.9-1.8 2.6-1.8 13.3 0 10.7.2 12.5 1.8 14 1.8 1.5 2 1.5 3.5-.2 1.4-1.5 1.7-4.1 1.7-13.8 0-13.7-.9-15.9-5.2-13.3zM455.7 74.8c-1.4 1.5-1.7 4.1-1.7 13.4 0 10.4.2 11.7 2.1 13.4 2.1 1.9 2.1 1.8 4-.5 1.6-2 1.9-4 1.9-13.6s-.3-11.4-1.8-12.8c-2.3-2.1-2.5-2.1-4.5.1zM422.6 107.9c-2.4 2.7-2 25.8.6 27.4 1.2.8 2.1.7 3.2-.2 1.3-1.1 1.6-3.6 1.6-13.6 0-10.6-.2-12.4-1.8-13.9-1.8-1.5-2-1.5-3.6.3zM455.7 108.8c-1.4 1.5-1.7 4.1-1.7 13.4 0 9.8.3 11.7 1.8 13.1 1.7 1.6 2 1.5 4-.3 2-1.9 2.2-3.1 2.2-13.4 0-9.7-.3-11.5-1.8-12.9-2.3-2.1-2.5-2.1-4.5.1z"/><path d="M427.3 136.9c-1 1.5-.9 2.2.6 3.5 1.4 1.3 4.1 1.6 13.7 1.6 11 0 12-.2 13.2-2.1 2.6-4.1.2-4.9-13.7-4.9-11.3 0-12.7.2-13.8 1.9zM73 230v5h12.5c6.9 0 12.5.2 12.5.4 0 .4-17.5 32.4-22.1 40.3l-1.8 3.3h13.4l12.3-22.8c10.1-18.8 12.2-23.5 12.2-27V225H73v5zM200.5 225.5c-2.2.8-5.5 3-7.2 4.9-2.9 3.1-3.3 4.3-3.3 9 0 4.6.4 5.8 3 8.6 2.8 3 2.9 3.3 1.3 4.6-1 .7-2 1.4-2.3 1.4-1.6.1-4 6.4-4 10.3 0 11.4 14.2 18.7 29 14.7 5.6-1.5 11.6-7.3 12.5-12 .9-5-1.4-11-5.2-13.6l-3.2-2.1 2.4-2.3c1.4-1.3 2.9-3.8 3.6-5.7 4.2-12.7-11.5-23.1-26.6-17.8zm14 11c3 2.9 3.1 4.5.4 7.9-4.2 5.4-13.9 2.4-13.9-4.3 0-6 8.9-8.3 13.5-3.6zM216 259c1.1 1.1 2 3.1 2 4.5 0 4.2-3.3 6.5-9.2 6.5-8.7 0-12.9-6.4-7.2-10.9 3.6-2.9 11.6-2.9 14.4-.1zM313.7 225.5c-12.1 4.3-16.3 19.7-8.1 29.5 4.9 5.7 17.9 7.5 24.3 3.3 2.3-1.5 2.4-1.5 1.7 1.3-2.3 9.5-10.4 12.6-19.5 7.3-1.8-1.1-3.5-1.9-3.6-1.7-1.7 2.3-5.5 8.4-5.5 8.9 0 .4 2.3 1.9 5.2 3.3 3.9 2 6.7 2.6 11.5 2.6 15.4 0 23.2-8.7 24.1-27.1.6-11.9-1.1-17.9-6.6-23.2-5.8-5.7-15-7.3-23.5-4.2zm14.2 10c3.1 1.5 4.1 3.3 4.1 7s-1 5.5-4.1 7c-4.5 2.4-8.7 1.9-12-1.4-7.7-7.7 1.9-17.8 12-12.6zM431 237.5v6.5h12v-13h-12v6.5zM415 255v6h44v-12h-44v6zM431 274v6h12v-12h-12v6zM83.5 356.1C65.5 377 66.7 375.2 68 380l1.1 4H96v12h11v-12h7v-10h-7v-33H96.5l-13 15.1zM96 366v8H80.9l6.8-8c3.7-4.3 7.1-7.9 7.6-8 .4 0 .7 3.6.7 8zM192.6 346.2c-.3 2.9-.7 9-1 13.5l-.5 8.2 3.4 2.1c3.1 1.9 4.1 2 8.3 1.1 5.7-1.2 8.8-.6 12 2.2 3.9 3.6 2.5 9.5-2.7 11.7-3.7 1.5-9.4.6-13.1-2-4-2.8-4.4-2.8-7.9 1.3-3.2 3.6-3.3 3.9-1.7 5.6 3.2 3.5 11.6 6.4 18.7 6.4 14.4 0 22.5-9.5 19.8-23-1.8-8.9-10.5-14.2-21.3-12.9l-4.8.5.6-3.1c.3-1.7.6-3.9.6-4.9 0-1.7.9-1.9 11.5-1.9H226v-10h-32.9l-.5 5.2zM317.7 341.3c-5.1 1.6-10.3 6-12.7 10.7-5.2 10.2-4.9 28.2.5 36 7.6 11 26.9 11.2 35.1.4 3.8-4.9 4.4-12.6 1.5-18.7-3.7-7.7-14.1-11.4-23.1-8.3-2.4.8-4.6 1.3-4.8 1.1-1-1 1.2-6 3.8-8.6 3.5-3.5 8.7-3.9 14.2-.9l3.7 2 3.1-4.5 3-4.4-2.5-1.7c-6.4-4.2-14.5-5.3-21.8-3.1zm12.3 31.2c1.3 1.2 2 3.1 2 5.6 0 5.3-2.9 7.9-9.1 7.9-5.6 0-8.6-2.1-9.5-6.7-.5-2.7-.1-3.7 2.5-6.4 2.9-2.8 3.7-3.1 7.7-2.6 2.5.2 5.4 1.3 6.4 2.2zM417.6 355.2c.4.7 3.4 5.2 6.6 9.9 3.2 4.7 5.8 8.9 5.8 9.4 0 .4-2.8 4.8-6.3 9.9-3.5 5-6.7 9.7-7.1 10.3-.5 1 .8 1.3 5.3 1.3h6.1l4.1-6.5c2.2-3.6 4.5-6.3 4.9-6 .5.3 2.5 3.2 4.5 6.5l3.6 6h6c3.2 0 5.9-.3 5.9-.6 0-.4-3.2-5.3-7.1-11l-7-10.4 2.4-3.3c1.3-1.7 4.5-6.2 7.1-10l4.7-6.7h-6.3l-6.3.1-3.8 6-3.8 6.1-3.9-6.1-4-6.1h-6c-4.6 0-5.9.3-5.4 1.2zM84.5 460.2c-3.8 1.2-7.1 2.2-7.3 2.4-.2.1.2 2.3.9 4.9 1.2 4.6 1.2 4.7 4.6 4 1.9-.3 4.1-.9 4.9-1.2 1.2-.4 1.4 2.8 1.4 21.1V513h12v-55l-4.7.1c-2.7 0-7.9 1-11.8 2.1zM199.4 459.5c-1.7.9-4.8 3.3-6.8 5.4l-3.7 3.8 4.1 3.3 4.1 3.3 2.7-2.5c5.8-5.5 10-6.1 13.9-2.2 2.1 2.1 2.4 3.2 2 6.1-.7 4.4-3.3 7.1-17.1 18.3l-10.5 8.5-.1 4.7v4.8h41v-10h-12.2l-12.3-.1 3.5-2.7c16.8-13.1 20.4-18 19.7-27-.4-5.6-2.4-9.1-7.1-12.6-3.7-2.8-16.6-3.4-21.2-1.1zM305 463.6v5.6l10.5-.4c5.8-.1 10.5-.2 10.5-.2 0 .1-2.9 3-6.5 6.5-6.4 6.3-6.5 6.4-5.5 10 1 3.5 1.2 3.6 6.6 4.2 9.1.9 13.1 6.4 8.4 11.5-3.1 3.3-9.4 3-15.2-.7l-4.6-2.9-3.8 3.9-3.9 4 2.5 2c10.1 8 24 9 32 2.3 4.4-3.7 6-7.5 6-13.8 0-4.8-.4-6-3.1-9.1-1.8-2-4.8-4-7-4.7l-4-1.1 7.1-7.2c6.7-6.7 7.1-7.4 6.8-11.1l-.3-3.9-18.2-.3-18.3-.2v5.6zM418.4 482.4c-.3.7-.4 3.3-.2 5.7l.3 4.4 18.3.3 18.2.2v-12h-18c-14.5 0-18.2.3-18.6 1.4zM86.5 569.9c-7.7 2-13.1 6.7-16.7 14.6-3.2 7.1-3.2 20 .1 26.6 8.3 17.1 28.6 19.7 39.8 5.1 3.9-5.2 5.6-10.7 5.6-18.7s-1.7-13.5-5.6-18.7c-5.5-7.2-15.3-10.9-23.2-8.9zm9.5 11.6c4.4 2.3 7 8.2 7 16 0 7.7-1.7 12.3-5.5 15.3-5.3 4.2-12.5 2-16.2-5.1-2.3-4.3-2.3-16.1 0-20.4 3.5-6.7 8.9-8.8 14.7-5.8zM202.3 613.6c-.2.6-.3 3.3-.1 6l.3 4.9 6.3.3 6.2.3v-11.9l-6.1-.4c-3.9-.2-6.3.1-6.6.8zM317 585v7h-14v11h14v14h11v-14h14v-11h-14v-14h-11v7zM418 587.5v5.5l18.6-.2 18.6-.3.2-5.3.1-5.2H418v5.5zM418 607.5v5.5h36.8l.4-5.1c.1-2.8.1-5.3-.1-5.5-.2-.2-8.7-.4-18.8-.4H418v5.5z"/></svg>